<svg width='38' height='32' viewBox='0 0 38 32' fill='none' xmlns='http://www.w3.org/2000/svg'>
    <path d="M19 0a19 16 0 1 0 0 32A19 16 0 1 0 19 0z" fill="#525171" />
    <path d="M18.882 6.001h-0.04c-0.022 -0.002 -0.031 0 -0.045 0A10.024 10.024 0 0 0 11.84 8.828L9.786 6.754A0.334 0.334 0 0 0 9.42 6.678 0.347 0.347 0 0 0 9.202 6.994l0.344 7.087h6.676a0.344 0.344 0 0 0 0.17 -0.64L14.37 11.394c1.2 -1.154 2.757 -1.785 4.477 -1.785 3.496 0.02 6.347 2.885 6.347 6.437 -0.027 3.479 -2.87 6.308 -6.403 6.334a6.439 6.439 0 0 1 -5.513 -3.763l-3.274 1.51 0.022 0.046c2.243 4.338 5.778 6.165 9.57 5.776 5.11 -0.407 9.168 -4.689 9.203 -9.954C28.8 10.528 24.355 6.05 18.882 6.001z" fill="#F5E2FE" />
</svg>