<svg width="39" height="34" viewBox="0 0 39 34" fill="none" xmlns="http://www.w3.org/2000/svg">
<ellipse cx="19" cy="18" rx="19" ry="16" transform="rotate(-180 19 18)" fill="#8C6436"/>
<g clip-path="url(#clip0_603_6)">
<path d="M17.6167 23.0669L17.5683 25.957V26.4387C17.5683 27.4021 17.6167 28.3654 17.7621 29.3288C19.9427 27.6648 22.2687 25.8256 22.2687 23.242C22.2687 21.797 21.5903 20.3081 20.185 20.3081C18.6828 20.3081 17.6652 21.6218 17.6167 23.0669ZM15.5815 30.9053L15 4.85032C15.3877 4.63137 15.8722 4.5 16.3084 4.5C16.7445 4.5 17.2291 4.63137 17.6167 4.85032L17.2775 19.9578C18.489 19.0382 20.0881 18.4689 21.6872 18.4689C24.207 18.4689 26 20.5709 26 22.9355C26 26.4387 21.8326 28.0589 18.8767 30.336C18.1498 30.9053 17.7137 32 16.696 32C16.0661 32 15.5815 31.5183 15.5815 30.9053Z" fill="#F07575"/>
</g>
<path d="M31.7841 11.983V13.5455H25.4205V11.983H31.7841Z" fill="#F07575"/>
<defs>
<clipPath id="clip0_603_6">
<rect width="11" height="27.5" fill="white" transform="translate(15 4.5)"/>
</clipPath>
</defs>
</svg>
