<svg width="38" height="33" viewBox="0 0 38 33" fill="none" xmlns="http://www.w3.org/2000/svg">
<ellipse cx="19" cy="17" rx="19" ry="16" transform="rotate(-180 19 17)" fill="#525170"/>
<g clip-path="url(#clip0_511_13)">
<path d="M18.141 21.8106L18.1013 24.4273V24.8634C18.1013 25.7357 18.141 26.6079 18.2599 27.4802C20.0441 25.9736 21.9471 24.3084 21.9471 21.9692C21.9471 20.6608 21.3921 19.3128 20.2423 19.3128C19.0132 19.3128 18.1806 20.5022 18.141 21.8106ZM16.4758 28.9075L16 5.31718C16.3172 5.11894 16.7137 5 17.0705 5C17.4273 5 17.8238 5.11894 18.141 5.31718L17.8634 18.9956C18.8546 18.163 20.163 17.6476 21.4714 17.6476C23.533 17.6476 25 19.5507 25 21.6916C25 24.8634 21.5903 26.3304 19.1718 28.3921C18.5771 28.9075 18.2203 29.8987 17.3877 29.8987C16.8722 29.8987 16.4758 29.4626 16.4758 28.9075Z" fill="#E57676"/>
</g>
<path d="M29.4489 9.08807V10.1818H24.9943V9.08807H29.4489Z" fill="#E57676"/>
<defs>
<clipPath id="clip0_511_13">
<rect width="9" height="24.8987" fill="white" transform="translate(16 5)"/>
</clipPath>
</defs>
</svg>
