<svg width="39" height="34" viewBox="0 0 39 34" fill="none" xmlns="http://www.w3.org/2000/svg">
<ellipse cx="19" cy="18" rx="19" ry="16" fill="#525170"/>
<path d="M20.504 27.5645C20.504 27.8645 20.152 28.1345 19.712 28.1345C19.272 28.1345 18.876 27.8645 18.876 27.5645V23.2145L15.224 24.1445V28.8845C15.224 29.1845 14.828 29.4545 14.388 29.4545C13.948 29.4545 13.596 29.1845 13.596 28.8845V24.5345L12.188 24.8945C12.1 24.9245 11.968 24.9245 11.88 24.9245C11.396 24.9245 11 24.6545 11 24.3245V22.5245C11 22.2845 11.22 22.0445 11.572 21.9545L13.596 21.4745V16.6745L12.188 17.0045C12.1 17.0345 11.968 17.0345 11.88 17.0345C11.396 17.0345 11 16.7645 11 16.4345V14.6345C11 14.3945 11.22 14.1845 11.572 14.0945L13.596 13.5845V8.84454C13.596 8.54454 13.948 8.27454 14.388 8.27454C14.828 8.27454 15.224 8.54454 15.224 8.84454V13.1945L18.876 12.2645V7.52454C18.876 7.22454 19.272 6.95454 19.712 6.95454C20.152 6.95454 20.504 7.22454 20.504 7.52454V11.8745L21.912 11.5145C22 11.4845 22.132 11.4845 22.22 11.4845C22.704 11.4845 23.1 11.7545 23.1 12.0845V13.8845C23.1 14.1245 22.88 14.3645 22.528 14.4545L20.504 14.9345V19.7345L21.912 19.4045C22 19.3745 22.132 19.3745 22.22 19.3745C22.704 19.3745 23.1 19.6445 23.1 19.9745V21.7745C23.1 22.0145 22.88 22.2245 22.528 22.3145L20.504 22.8245V27.5645ZM15.224 16.2545V21.0545L18.876 20.1545V15.3545L15.224 16.2545Z" fill="#91DEA2"/>
<path d="M29.2159 17.1051V8.66761H30.6477V17.1051H29.2159ZM25.7131 13.6023V12.1705H34.1506V13.6023H25.7131Z" fill="#91DEA2"/>
</svg>
