<svg width="38" height="33" viewBox="0 0 38 33" fill="none" xmlns="http://www.w3.org/2000/svg">
<ellipse cx="19" cy="17" rx="19" ry="16" fill="#525170"/>
<path d="M20.8545 25.7364C20.8545 26.0091 20.5636 26.2545 20.2 26.2545C19.8364 26.2545 19.5091 26.0091 19.5091 25.7364V21.7818L16.4909 22.6273V26.9364C16.4909 27.2091 16.1636 27.4545 15.8 27.4545C15.4364 27.4545 15.1455 27.2091 15.1455 26.9364V22.9818L13.9818 23.3091C13.9091 23.3364 13.8 23.3364 13.7273 23.3364C13.3273 23.3364 13 23.0909 13 22.7909V21.1545C13 20.9364 13.1818 20.7182 13.4727 20.6364L15.1455 20.2V15.8364L13.9818 16.1364C13.9091 16.1636 13.8 16.1636 13.7273 16.1636C13.3273 16.1636 13 15.9182 13 15.6182V13.9818C13 13.7636 13.1818 13.5727 13.4727 13.4909L15.1455 13.0273V8.71818C15.1455 8.44545 15.4364 8.2 15.8 8.2C16.1636 8.2 16.4909 8.44545 16.4909 8.71818V12.6727L19.5091 11.8273V7.51818C19.5091 7.24545 19.8364 7 20.2 7C20.5636 7 20.8545 7.24545 20.8545 7.51818V11.4727L22.0182 11.1455C22.0909 11.1182 22.2 11.1182 22.2727 11.1182C22.6727 11.1182 23 11.3636 23 11.6636V13.3C23 13.5182 22.8182 13.7364 22.5273 13.8182L20.8545 14.2545V18.6182L22.0182 18.3182C22.0909 18.2909 22.2 18.2909 22.2727 18.2909C22.6727 18.2909 23 18.5364 23 18.8364V20.4727C23 20.6909 22.8182 20.8818 22.5273 20.9636L20.8545 21.4273V25.7364ZM16.4909 15.4545V19.8182L19.5091 19V14.6364L16.4909 15.4545Z" fill="#91DEA2"/>
<path d="M28.0568 13.304V6.74148H29.1705V13.304H28.0568ZM25.3324 10.5795V9.46591H31.8949V10.5795H25.3324Z" fill="#91DEA2"/>
</svg>
