<svg width="38" height="33" viewBox="0 0 38 33" fill="none" xmlns="http://www.w3.org/2000/svg">
<ellipse cx="19" cy="17" rx="19" ry="16" fill="#8C6436"/>
<path d="M20.8545 25.7322C20.8545 26.0049 20.5636 26.2503 20.2 26.2503C19.8364 26.2503 19.5091 26.0049 19.5091 25.7322V21.7785L16.4909 22.6238V26.9319C16.4909 27.2046 16.1636 27.45 15.8 27.45C15.4364 27.45 15.1455 27.2046 15.1455 26.9319V22.9783L13.9818 23.3055C13.9091 23.3327 13.8 23.3327 13.7273 23.3327C13.3273 23.3327 13 23.0873 13 22.7874V21.1514C13 20.9333 13.1818 20.7151 13.4727 20.6333L15.1455 20.1971V15.8344L13.9818 16.1343C13.9091 16.1616 13.8 16.1616 13.7273 16.1616C13.3273 16.1616 13 15.9162 13 15.6163V13.9803C13 13.7621 13.1818 13.5713 13.4727 13.4895L15.1455 13.0259V8.7178C15.1455 8.44513 15.4364 8.19973 15.8 8.19973C16.1636 8.19973 16.4909 8.44513 16.4909 8.7178V12.6715L19.5091 11.8262V7.51807C19.5091 7.2454 19.8364 7 20.2 7C20.5636 7 20.8545 7.2454 20.8545 7.51807V11.4717L22.0182 11.1445C22.0909 11.1173 22.2 11.1173 22.2727 11.1173C22.6727 11.1173 23 11.3627 23 11.6626V13.2986C23 13.5167 22.8182 13.7349 22.5273 13.8167L20.8545 14.2529V18.6156L22.0182 18.3157C22.0909 18.2884 22.2 18.2884 22.2727 18.2884C22.6727 18.2884 23 18.5338 23 18.8337V20.4697C23 20.6879 22.8182 20.8787 22.5273 20.9605L20.8545 21.4241V25.7322ZM16.4909 15.4527V19.8153L19.5091 18.9973V14.6347L16.4909 15.4527Z" fill="#A3EBE2"/>
<path d="M28.0568 13.304V6.74148H29.1705V13.304H28.0568ZM25.3324 10.5795V9.46591H31.8949V10.5795H25.3324Z" fill="#A3EBE2"/>
</svg>
